<svg width="24" height="24" fill="none" xmlns="http://www.w3.org/2000/svg"><circle cx="11.823" cy="11.823" r="11.073" stroke="#fff" stroke-width="1.5"/><path d="m17.548 4.437-2.395-.003c-2.692 0-4.43 1.784-4.43 4.546v2.096h-2.41a.377.377 0 0 0-.376.377v3.037c0 .208.169.376.377.376h2.408v7.664c0 .208.169.376.377.376h3.142a.377.377 0 0 0 .377-.376v-7.664h2.816a.377.377 0 0 0 .377-.376l.001-3.037a.377.377 0 0 0-.377-.377h-2.817V9.299c0-.854.204-1.288 1.316-1.288h1.614a.377.377 0 0 0 .376-.377v-2.82a.377.377 0 0 0-.376-.377Z" fill="#fff"/></svg>