<svg width="30" height="30" fill="none" xmlns="http://www.w3.org/2000/svg"><path d="M11.823 2.912c-3.159 0-3.533.014-4.775.07-1.155.05-1.778.244-2.194.406-.55.212-.947.471-1.358.882-.415.416-.67.808-.882 1.358-.162.415-.355 1.043-.406 2.193-.056 1.247-.07 1.621-.07 4.776 0 3.159.014 3.533.07 4.775.05 1.154.244 1.778.406 2.194.213.55.471.946.882 1.357.416.416.808.67 1.358.882.416.162 1.044.356 2.194.407 1.247.055 1.62.07 4.775.07 3.159 0 3.533-.015 4.775-.07 1.155-.051 1.778-.245 2.194-.407.55-.212.946-.47 1.357-.882.416-.415.67-.808.883-1.357.161-.416.355-1.044.406-2.194.055-1.247.07-1.621.07-4.775 0-3.16-.015-3.533-.07-4.776-.05-1.154-.245-1.778-.406-2.193a3.656 3.656 0 0 0-.883-1.358 3.636 3.636 0 0 0-1.357-.882c-.416-.162-1.044-.356-2.194-.406-1.242-.056-1.616-.07-4.775-.07Zm0-2.129c3.21 0 3.611.014 4.872.07 1.256.055 2.12.258 2.868.55a5.77 5.77 0 0 1 2.097 1.366 5.793 5.793 0 0 1 1.367 2.092c.29.753.494 1.612.55 2.868.055 1.265.068 1.667.068 4.877s-.013 3.611-.069 4.872c-.055 1.256-.258 2.12-.55 2.868a5.77 5.77 0 0 1-1.366 2.097 5.78 5.78 0 0 1-2.092 1.362c-.753.291-1.612.494-2.868.55-1.261.055-1.663.069-4.872.069-3.21 0-3.612-.014-4.873-.07-1.256-.055-2.12-.258-2.868-.549a5.78 5.78 0 0 1-2.092-1.362A5.778 5.778 0 0 1 .633 20.35c-.291-.753-.494-1.612-.55-2.868-.055-1.26-.069-1.662-.069-4.872S.028 9 .084 7.739c.055-1.256.258-2.12.549-2.868a5.538 5.538 0 0 1 1.353-2.1 5.78 5.78 0 0 1 2.092-1.363c.753-.291 1.612-.494 2.868-.55C8.211.797 8.613.783 11.823.783Z" fill="#fff"/><path d="M11.823 6.533a6.074 6.074 0 0 1 6.073 6.073 6.074 6.074 0 0 1-6.073 6.073 6.074 6.074 0 0 1-6.073-6.073 6.074 6.074 0 0 1 6.073-6.073Zm0 10.012a3.94 3.94 0 1 0-.001-7.88 3.94 3.94 0 0 0 .001 7.88ZM4.092 6.293a1.418 1.418 0 1 0 2.836 0 1.418 1.418 0 0 0-2.836 0Z" fill="#fff"/></svg>