<svg width="30" height="30" fill="none" xmlns="http://www.w3.org/2000/svg"><path fill-rule="evenodd" clip-rule="evenodd" d="M14.04 27.107c6.784 0 12.284-5.5 12.284-12.284 0-6.785-5.5-12.285-12.285-12.285-6.784 0-12.284 5.5-12.284 12.285 0 2.203.58 4.27 1.596 6.058l-1.596 6.226 6.418-1.488a12.23 12.23 0 0 0 5.866 1.488Zm0-1.89c5.74 0 10.394-4.654 10.394-10.394 0-5.741-4.654-10.395-10.395-10.395-5.74 0-10.394 4.654-10.394 10.395 0 2.216.694 4.27 1.876 5.958l-.931 3.491 3.553-.888a10.346 10.346 0 0 0 5.896 1.833Z" fill="#fff"/><path d="M10.968 9.12c-.292-.587-.74-.536-1.193-.536-.809 0-2.07.97-2.07 2.773 0 1.478.651 3.096 2.846 5.516 2.118 2.335 4.9 3.543 7.21 3.502 2.31-.04 2.786-2.029 2.786-2.7 0-.298-.184-.446-.312-.487-.787-.377-2.239-1.081-2.57-1.214-.33-.132-.502.047-.61.144-.299.286-.893 1.127-1.096 1.317-.204.189-.507.093-.633.021-.464-.186-1.723-.746-2.726-1.718-1.241-1.203-1.314-1.617-1.548-1.986-.187-.294-.05-.475.019-.554.267-.309.636-.785.802-1.021.166-.237.034-.596-.045-.82-.339-.963-.626-1.769-.86-2.238Z" fill="#fff"/></svg>