<svg width="30" height="30" viewBox="0 0 30 30" fill="none" xmlns="http://www.w3.org/2000/svg">
<circle cx="11.8227" cy="11.8227" r="11.0727" stroke="white" stroke-width="1.5"/>
<path d="M17.5482 4.43735L15.1527 4.4335C12.4615 4.4335 10.7222 6.21789 10.7222 8.97971V11.0758H8.31368C8.10555 11.0758 7.93701 11.2445 7.93701 11.4527V14.4897C7.93701 14.6978 8.10574 14.8664 8.31368 14.8664H10.7222V22.5297C10.7222 22.7379 10.8908 22.9064 11.0989 22.9064H14.2414C14.4495 22.9064 14.6181 22.7377 14.6181 22.5297V14.8664H17.4343C17.6424 14.8664 17.8109 14.6978 17.8109 14.4897L17.8121 11.4527C17.8121 11.3527 17.7723 11.257 17.7018 11.1863C17.6312 11.1156 17.5351 11.0758 17.4352 11.0758H14.6181V9.29892C14.6181 8.44487 14.8216 8.01132 15.9341 8.01132L17.5478 8.01074C17.7558 8.01074 17.9243 7.842 17.9243 7.63407V4.81402C17.9243 4.60627 17.756 4.43773 17.5482 4.43735Z" fill="white"/>
</svg>
