<svg width="30" height="30" viewBox="0 0 30 30" fill="none" xmlns="http://www.w3.org/2000/svg">
<path d="M11.8228 2.91227C8.66398 2.91227 8.2899 2.92612 7.0476 2.98154C5.89304 3.03234 5.26958 3.22631 4.85394 3.38794C4.30437 3.60038 3.9072 3.859 3.49618 4.27003C3.08054 4.68567 2.82654 5.07822 2.6141 5.62778C2.45246 6.04342 2.2585 6.6715 2.2077 7.82144C2.15228 9.06836 2.13842 9.44244 2.13842 12.5967C2.13842 15.7556 2.15228 16.1296 2.2077 17.3719C2.2585 18.5265 2.45246 19.15 2.6141 19.5656C2.82654 20.1152 3.08516 20.5123 3.49618 20.9234C3.91182 21.339 4.30437 21.593 4.85394 21.8054C5.26958 21.9671 5.89766 22.161 7.0476 22.2118C8.29452 22.2673 8.6686 22.2811 11.8228 22.2811C14.9817 22.2811 15.3558 22.2673 16.5981 22.2118C17.7526 22.161 18.3761 21.9671 18.7918 21.8054C19.3413 21.593 19.7385 21.3344 20.1495 20.9234C20.5652 20.5077 20.8192 20.1152 21.0316 19.5656C21.1932 19.15 21.3872 18.5219 21.438 17.3719C21.4934 16.125 21.5073 15.7509 21.5073 12.5967C21.5073 9.43782 21.4934 9.06374 21.438 7.82144C21.3872 6.66688 21.1932 6.04342 21.0316 5.62778C20.8192 5.07822 20.5605 4.68105 20.1495 4.27003C19.7339 3.85439 19.3413 3.60038 18.7918 3.38794C18.3761 3.22631 17.748 3.03234 16.5981 2.98154C15.3558 2.92612 14.9817 2.91227 11.8228 2.91227ZM11.8228 0.783264C15.0325 0.783264 15.4343 0.797119 16.6951 0.852538C17.9512 0.907956 18.8148 1.11116 19.563 1.40211C20.3435 1.70691 21.0039 2.1087 21.6597 2.7691C22.3201 3.42489 22.7219 4.0853 23.0267 4.86116C23.3176 5.61393 23.5208 6.47292 23.5762 7.72908C23.6317 8.99447 23.6455 9.39626 23.6455 12.6059C23.6455 15.8156 23.6317 16.2174 23.5762 17.4782C23.5208 18.7343 23.3176 19.5979 23.0267 20.3461C22.7219 21.1266 22.3201 21.787 21.6597 22.4427C21.0039 23.0985 20.3435 23.5049 19.5676 23.8051C18.8148 24.0961 17.9559 24.2993 16.6997 24.3547C15.4389 24.4101 15.0371 24.424 11.8275 24.424C8.6178 24.424 8.21601 24.4101 6.95523 24.3547C5.69908 24.2993 4.83547 24.0961 4.08731 23.8051C3.31145 23.5049 2.65105 23.0985 1.99526 22.4427C1.33947 21.787 0.933065 21.1266 0.632881 20.3507C0.341932 19.5979 0.138729 18.7389 0.0833111 17.4828C0.0278931 16.222 0.0140381 15.8202 0.0140381 12.6105C0.0140381 9.40088 0.0278931 8.99909 0.0833111 7.73831C0.138729 6.48216 0.341932 5.61855 0.632881 4.8704C0.92383 4.0853 1.32561 3.42489 1.98602 2.7691C2.64181 2.11331 3.30222 1.70691 4.07808 1.40672C4.83085 1.11578 5.68984 0.912575 6.946 0.857156C8.21139 0.797119 8.61318 0.783264 11.8228 0.783264Z" fill="white"/>
<path d="M11.823 6.53296C15.1759 6.53296 17.896 9.25309 17.896 12.6059C17.896 15.9588 15.1759 18.6789 11.823 18.6789C8.4702 18.6789 5.75006 15.9588 5.75006 12.6059C5.75006 9.25309 8.4702 6.53296 11.823 6.53296ZM11.823 16.5453C13.9982 16.5453 15.7624 14.7811 15.7624 12.6059C15.7624 10.4307 13.9982 8.66658 11.823 8.66658C9.64784 8.66658 7.88368 10.4307 7.88368 12.6059C7.88368 14.7811 9.64784 16.5453 11.823 16.5453Z" fill="white"/>
<path d="M4.09214 6.29274C4.09214 7.07784 4.72946 7.71053 5.50994 7.71053C6.29504 7.71053 6.92773 7.07322 6.92773 6.29274C6.92773 5.50764 6.29042 4.87494 5.50994 4.87494C4.72946 4.87494 4.09214 5.51226 4.09214 6.29274Z" fill="white"/>
</svg>
